<?xml version="1.0" encoding="utf-8"?>
<!-- Svg Vector Icons : http://www.sfont.cn -->
<!DOCTYPE svg PUBLIC "-//W3C//DTD SVG 1.1//EN" "http://www.w3.org/Graphics/SVG/1.1/DTD/svg11.dtd">
<svg version="1.1" xmlns="http://www.w3.org/2000/svg" xmlns:xlink="http://www.w3.org/1999/xlink" x="0px" y="0px" viewBox="0 0 1000 1000" enable-background="new 0 0 1000 1000" xml:space="preserve">
<metadata> Svg Vector Icons : http://www.sfont.cn </metadata>
<g><g transform="translate(0.000000,512.000000) scale(0.100000,-0.100000)"><path d="M1998.7,3731.8L710.6,2445.6v-3548.7v-3546.7l65.1-65.1l65.1-65.1h3544.8h3544.9l65.1,65.1l65.1,65.1v671.8c0,478.5-5.7,685.2-23,719.7c-49.8,107.2-222,139.7-315.8,59.3l-53.6-45.9l-9.6-562.7l-9.6-560.8H4385.6H1122.1V-1105v3263.5l1171.4,9.6l1171.4,9.6l44,44l44,44l9.6,1171.4l9.6,1171.4h2038.5h2038.5l9.6-1983c9.6-1885.4,11.5-1986.8,44-2023.2c93.8-103.4,250.8-91.9,321.6,23c34.5,57.4,36.4,122.5,36.4,2161v2103.6l-65.1,65.1l-65.1,65.1H5608.7H3285L1998.7,3731.8z M3160.6,3440.9V2570h-874.7h-876.6l870.9,870.9c478.5,478.5,872.8,870.9,874.7,870.9C3158.7,4311.8,3160.6,3919.4,3160.6,3440.9z"/><path d="M3507,89.4c-298.6-63.2-562.7-252.7-675.7-482.3c-57.4-116.8-63.2-141.6-63.2-310.1c0-162.7,5.7-193.3,57.4-292.8c63.2-128.3,241.2-302.4,382.8-380.9c132.1-70.8,359.8-130.2,497.7-130.2c421.1-1.9,727.3-220.1,669.9-480.4c-21.1-91.9-145.5-214.4-283.3-277.5c-107.2-49.8-139.7-55.5-319.6-55.5c-179.9,0-212.5,5.7-315.8,53.6c-191.4,90-296.7,216.3-296.7,359.8c0,82.3-107.2,189.5-189.5,189.5c-80.4,0-158.9-42.1-191.4-103.4c-40.2-74.6-17.2-268,47.9-401.9c61.2-128.2,237.3-300.5,384.7-380.9c313.9-168.4,807.7-168.4,1121.6,0c145.5,80.4,321.6,252.7,386.6,382.8c51.7,99.5,57.4,130.1,57.4,292.8c0,168.4-5.7,193.3-63.2,310.1c-145.5,298.6-534,511.1-932.1,513c-371.3,1.9-666.1,231.6-612.5,474.7c17.2,84.2,132.1,206.7,245,260.3c53.6,26.8,160.8,59.3,235.4,70.8c333,53.6,694.8-124.4,727.3-357.9c24.9-172.3,88-237.4,227.8-237.4c51.7,0,84.2,15.3,128.2,57.4c55.5,55.5,57.4,65.1,49.8,189.5C4755-140.3,4125.3,225.3,3507,89.4z"/><path d="M5313.9,97c-65.1-34.5-105.3-97.6-105.3-168.4c0-36.4,183.7-622.1,413.4-1311.1C6079.5-2760.7,6066.1-2732,6225-2732c151.2,0,141.7-21,597.2,1349.4c229.7,685.2,415.4,1267.1,415.4,1295.8c0,174.2-191.4,268-323.5,158.9c-49.8-44-91.9-155-369.4-985.7c-170.3-516.8-317.7-937.9-325.4-937.9c-5.7,0-151.2,421.1-321.6,936C5622.1-75.2,5583.8,26.2,5532.1,70.2C5468.9,123.8,5380.9,135.3,5313.9,97z"/><path d="M8252,91.3c-223.9-63.2-411.5-222-518.7-440.2l-65.1-134v-823v-825l70.8-143.5c137.8-277.5,382.8-440.2,687.1-453.6c114.8-5.7,197.2,1.9,268,23c151.2,42.1,325.4,162.7,419.2,287.1c120.6,158.9,157,271.8,168.4,520.6c13.4,346.5-30.6,390.5-409.6,390.5c-256.5,0-333.1-24.9-379-124.4c-17.2-34.4-30.6-72.7-30.6-86.1s13.4-51.7,30.6-86.1c40.2-84.2,128.2-124.4,273.7-124.4h116.7l-11.5-61.3c-21.1-118.7-105.3-229.7-218.2-289c-91.9-47.9-120.6-53.6-216.3-46c-134,11.5-239.2,74.7-313.9,189.5l-53.6,80.4l-5.7,715.9l-5.7,717.8l51.7,103.4c126.3,260.3,465.1,306.3,654.6,91.9c88.1-101.4,118.7-201,118.7-392.4c0-155,30.6-229.7,105.3-264.1c91.9-42.1,160.8-28.7,233.5,44l67,67l-7.7,235.4c-5.7,214.4-11.5,245-67,363.7c-84.2,176.1-225.9,323.5-400,407.7c-116.8,59.3-162.7,70.8-298.6,76.6C8410.9,118.1,8322.8,110.4,8252,91.3z"/></g></g>
</svg>